HIERARCHY
ROOT Hips
{
	OFFSET 0.000000 0.000000 0.000000
	CHANNELS 6 Xposition Yposition Zposition Xrotation Yrotation Zrotation
	JOINT LeftUpLeg_virtual
	{
		OFFSET 0.000000 0.000000 0.000000
		CHANNELS 3 Xrotation Yrotation Zrotation
		JOINT LeftUpLeg
		{
			OFFSET 15.427100 -6.655098 0.678600
			CHANNELS 3 Xrotation Yrotation Zrotation
			JOINT LeftLeg
			{
				OFFSET 4.081073 -39.591068 13.024000
				CHANNELS 3 Xrotation Yrotation Zrotation
				JOINT LeftFoot
				{
					OFFSET -4.081074 -37.707932 -15.979700
					CHANNELS 3 Xrotation Yrotation Zrotation
					JOINT LeftToeBase
					{
						OFFSET 5.346399 -15.068900 20.645000
						CHANNELS 3 Xrotation Yrotation Zrotation
						JOINT LeftToe_End
						{
							OFFSET 2.754700 0.931300 11.300900
							CHANNELS 3 Xrotation Yrotation Zrotation
							End Site
							{
								OFFSET 0 0 0
							}
						}
					}
				}
			}
		}
	}
	JOINT RightUpLeg_virtual
	{
		OFFSET 0.000000 0.000000 0.000000
		CHANNELS 3 Xrotation Yrotation Zrotation
		JOINT RightUpLeg
		{
			OFFSET -15.569500 -6.655098 0.678600
			CHANNELS 3 Xrotation Yrotation Zrotation
			JOINT RightLeg
			{
				OFFSET -4.081825 -39.591045 13.023800
				CHANNELS 3 Xrotation Yrotation Zrotation
				JOINT RightFoot
				{
					OFFSET 4.081824 -37.707954 -15.979600
					CHANNELS 3 Xrotation Yrotation Zrotation
					JOINT RightToeBase
					{
						OFFSET -5.346400 -15.068900 20.645000
						CHANNELS 3 Xrotation Yrotation Zrotation
						JOINT RightToe_End
						{
							OFFSET -2.754700 0.931300 11.300900
							CHANNELS 3 Xrotation Yrotation Zrotation
							End Site
							{
								OFFSET 0 0 0
							}
						}
					}
				}
			}
		}
	}
	JOINT Spine_virtual
	{
		OFFSET 0.000000 0.000000 0.000000
		CHANNELS 3 Xrotation Yrotation Zrotation
		JOINT Spine
		{
			OFFSET -0.279200 12.230698 -2.892100
			CHANNELS 3 Xrotation Yrotation Zrotation
			JOINT Spine1
			{
				OFFSET -0.232667 10.192268 -1.242267
				CHANNELS 3 Xrotation Yrotation Zrotation
				JOINT Spine1_split
				{
					OFFSET -0.232667 10.192268 -1.242267
					CHANNELS 3 Xrotation Yrotation Zrotation
					JOINT Spine2
					{
						OFFSET -0.232667 10.192268 -1.242267
						CHANNELS 3 Xrotation Yrotation Zrotation
						JOINT Neck_virtual
						{
							OFFSET 0.000000 0.000000 0.000000
							CHANNELS 3 Xrotation Yrotation Zrotation
							JOINT Neck
							{
								OFFSET -0.418800 17.814194 8.416900
								CHANNELS 3 Xrotation Yrotation Zrotation
								JOINT Head
								{
									OFFSET 0.000000 7.031097 3.806800
									CHANNELS 3 Xrotation Yrotation Zrotation
									JOINT HeadTop_End
									{
										OFFSET 0.000000 24.646606 12.978600
										CHANNELS 3 Xrotation Yrotation Zrotation
										End Site
										{
											OFFSET 0 0 0
										}
									}
								}
							}
						}
						JOINT LeftShoulder_virtual
						{
							OFFSET 0.000000 0.000000 0.000000
							CHANNELS 3 Xrotation Yrotation Zrotation
							JOINT LeftShoulder
							{
								OFFSET 8.476499 7.247704 -3.868750
								CHANNELS 3 Xrotation Yrotation Zrotation
								JOINT LeftShoulder_split
								{
									OFFSET 8.476499 7.247704 -3.868750
									CHANNELS 3 Xrotation Yrotation Zrotation
									JOINT LeftArm
									{
										OFFSET 9.308998 -2.777710 0.208600
										CHANNELS 3 Xrotation Yrotation Zrotation
										JOINT LeftForeArm
										{
											OFFSET 29.972298 0.000000 0.000000
											CHANNELS 3 Xrotation Yrotation Zrotation
											JOINT LeftHand
											{
												OFFSET 26.026505 0.000000 0.000000
												CHANNELS 3 Xrotation Yrotation Zrotation
												End Site
												{
													OFFSET 0 0 0
												}
											}
										}
									}
								}
							}
						}
						JOINT RightShoulder_virtual
						{
							OFFSET 0.000000 0.000000 0.000000
							CHANNELS 3 Xrotation Yrotation Zrotation
							JOINT RightShoulder
							{
								OFFSET -7.570500 7.247704 -3.868750
								CHANNELS 3 Xrotation Yrotation Zrotation
								JOINT RightShoulder_split
								{
									OFFSET -7.570500 7.247704 -3.868750
									CHANNELS 3 Xrotation Yrotation Zrotation
									JOINT RightArm
									{
										OFFSET -9.308998 -2.777710 0.208500
										CHANNELS 3 Xrotation Yrotation Zrotation
										JOINT RightForeArm
										{
											OFFSET -29.972300 0.000000 0.000000
											CHANNELS 3 Xrotation Yrotation Zrotation
											JOINT RightHand
											{
												OFFSET -26.026505 0.000000 0.000000
												CHANNELS 3 Xrotation Yrotation Zrotation
												End Site
												{
													OFFSET 0 0 0
												}
											}
										}
									}
								}
							}
						}
					}
				}
			}
		}
	}
}
MOTION
Frames: 6
Frame Time: 0.03333333
-0.106395 122.548302 14.765756 0.000000 0.000000 0.000000 4.370294 -36.883831 5.400905 -74.634071 -16.859506 32.946794 65.348122 -1.961998 6.654296 3.074273 1.063667 -1.206764 -0.000274 -0.007716 0.000022 0.000000 0.000000 0.000000 4.370294 -36.883831 5.400905 -99.634012 -66.250219 32.476672 112.938892 -8.275164 -29.878560 20.195802 0.103216 28.059898 -0.000194 0.000198 -0.000330 0.000000 0.000000 0.000000 4.370294 -36.883831 5.400905 30.126267 -5.759431 -10.055905 12.785633 1.087589 -3.033127 0.000000 0.000000 0.000000 0.000000 0.000000 0.000000 12.733213 1.050410 -3.241309 -8.164148 20.999273 -13.038083 -23.845978 13.475286 4.639313 0.000000 0.000000 0.000000 12.733213 1.050410 -3.241309 9.829636 -9.813821 -1.458545 0.000000 0.000000 0.000000 -62.537738 12.081217 3.106150 46.615566 -25.819855 31.530096 0.000000 0.000000 0.000000 12.733213 1.050410 -3.241309 14.990496 20.897821 -4.160223 0.000000 0.000000 0.000000 -28.001556 -11.258125 -3.541422 -45.194552 43.244007 34.197698 0.000000 0.000000 0.000000 
-0.073917 122.611221 14.785798 0.000000 0.000000 0.000000 4.247947 -36.387942 5.189295 -74.691028 -16.790721 32.931040 65.547358 -0.710151 7.341349 3.098780 0.312760 -0.004372 0.215761 -0.007778 -0.000027 0.000000 0.000000 0.000000 4.247947 -36.387942 5.189295 -99.518199 -66.410612 33.189744 113.007727 -8.764913 -30.178211 21.322257 0.192285 28.929171 -0.000209 0.000189 -0.000336 0.000000 0.000000 0.000000 4.247947 -36.387942 5.189295 30.126950 -5.839151 -10.041103 12.798064 1.087543 -3.033107 0.000000 0.000000 0.000000 0.000000 0.000000 0.000000 12.745765 1.050449 -3.241326 -8.938876 20.977121 -13.011270 -25.364826 13.878973 5.705349 0.000000 0.000000 0.000000 12.745765 1.050449 -3.241326 10.133423 -9.721063 -0.028982 0.000000 0.000000 0.000000 -63.361370 10.080279 4.356412 46.550044 -25.690324 31.376748 0.000000 0.000000 0.000000 12.745765 1.050449 -3.241326 15.618582 20.231674 -5.707899 0.000000 0.000000 0.000000 -29.640125 -12.140667 -3.854856 -46.313778 44.391817 35.807817 0.000000 0.000000 0.000000 
0.019917 122.629829 14.821598 0.000000 0.000000 0.000000 4.136985 -35.961137 4.939832 -74.795230 -16.916049 32.897511 65.623945 -0.953651 7.198737 3.464440 0.257238 0.361624 0.180629 -0.007785 -0.000004 0.000000 0.000000 0.000000 4.136985 -35.961137 4.939832 -99.566031 -66.644068 33.702544 113.197743 -9.351163 -30.358644 21.678838 0.208588 29.354760 -0.000217 0.000172 -0.000351 0.000000 0.000000 0.000000 4.136985 -35.961137 4.939832 30.140877 -5.845147 -10.001941 12.836340 1.087546 -3.033106 0.000000 0.000000 0.000000 0.000000 0.000000 0.000000 12.784356 1.050456 -3.241320 -8.866117 20.938430 -12.983732 -25.347686 13.462042 5.688115 0.000000 0.000000 0.000000 12.784356 1.050456 -3.241320 10.430025 -9.904271 1.491893 0.000000 0.000000 0.000000 -64.152579 7.747713 5.238487 46.442459 -25.463693 31.110617 0.000000 0.000000 0.000000 12.784356 1.050456 -3.241320 16.239451 19.506938 -7.293200 0.000000 0.000000 0.000000 -31.353386 -13.054806 -4.253625 -47.590876 45.600792 37.608210 0.000000 0.000000 0.000000 
0.124364 122.644829 14.850368 0.000000 0.000000 0.000000 4.027995 -35.532748 4.687475 -74.959612 -17.073265 32.863025 65.743118 -1.310020 6.993639 3.873458 0.313032 0.690163 0.203210 -0.007774 0.000053 0.000000 0.000000 0.000000 4.027995 -35.532748 4.687475 -99.629231 -66.866855 34.174623 113.378381 -9.914370 -30.522807 22.014745 0.239430 29.781865 -0.000209 0.000201 -0.000353 0.000000 0.000000 0.000000 4.027995 -35.532748 4.687475 30.163963 -5.855261 -9.953726 12.896414 1.087573 -3.033113 0.000000 0.000000 0.000000 0.000000 0.000000 0.000000 12.844862 1.047241 -3.240660 -8.768869 20.881826 -13.000377 -25.355819 13.108477 5.575851 0.000000 0.000000 0.000000 12.844862 1.047241 -3.240660 10.741676 -10.297291 3.065317 0.000000 0.000000 0.000000 -64.952305 5.309777 5.718530 46.310025 -25.181647 30.784124 0.000000 0.000000 0.000000 12.844862 1.047241 -3.240660 16.860670 18.882280 -8.907519 0.000000 0.000000 0.000000 -33.079392 -13.866477 -4.670740 -48.903939 46.741457 39.420526 0.000000 0.000000 0.000000 
0.243841 122.660919 14.873806 0.000000 0.000000 0.000000 3.918880 -35.091589 4.432470 -75.167359 -17.283908 32.868878 65.901210 -1.471201 6.897052 4.312584 0.110156 1.001126 0.204458 -0.007762 -0.000008 0.000000 0.000000 0.000000 3.918880 -35.091589 4.432470 -99.752474 -67.045560 34.510350 113.536616 -10.431320 -30.655535 22.359292 0.268708 30.157034 -0.000177 0.000205 -0.000321 0.000000 0.000000 0.000000 3.918880 -35.091589 4.432470 30.197468 -5.874778 -9.903324 12.974680 1.072774 -3.030068 0.000000 0.000000 0.000000 0.000000 0.000000 0.000000 12.923654 1.030321 -3.237162 -8.657806 20.860330 -12.990602 -25.298881 12.873067 5.441934 0.000000 0.000000 0.000000 12.923654 1.030321 -3.237162 11.083781 -10.832099 4.652780 0.000000 0.000000 0.000000 -65.798887 3.000807 5.773103 46.169668 -24.886076 30.443905 0.000000 0.000000 0.000000 12.923654 1.030321 -3.237162 17.482836 18.421210 -10.518582 0.000000 0.000000 0.000000 -34.745770 -14.448053 -5.024507 -50.097037 47.691950 41.032317 0.000000 0.000000 0.000000 
0.372001 122.675842 14.896726 0.000000 0.000000 0.000000 3.822597 -34.646066 4.196074 -75.408908 -17.516292 32.900878 66.082995 -1.470077 6.890593 4.764669 -0.263558 1.308103 0.216757 -0.007764 -0.000015 0.000000 0.000000 0.000000 3.822597 -34.646066 4.196074 -99.904658 -67.176946 34.755520 113.681184 -10.912836 -30.767096 22.677814 0.295030 30.502269 -0.000220 0.000219 -0.000345 0.000000 0.000000 0.000000 3.822597 -34.646066 4.196074 30.241209 -5.901674 -9.855713 13.067678 1.040947 -3.023478 0.000000 0.000000 0.000000 0.000000 0.000000 0.000000 13.017348 1.001596 -3.231236 -8.536946 20.882581 -12.988342 -25.238013 12.699366 5.340843 0.000000 0.000000 0.000000 13.017348 1.001596 -3.231236 11.463790 -11.439436 6.216101 0.000000 0.000000 0.000000 -66.711564 1.058987 5.392886 46.042821 -24.618141 30.135864 0.000000 0.000000 0.000000 13.017348 1.001596 -3.231236 18.102790 18.149976 -12.084702 0.000000 0.000000 0.000000 -36.214469 -14.257156 -4.941020 -50.983510 48.344595 42.206030 0.000000 0.000000 0.000000 
